<mxfile host="Electron" modified="2024-01-31T17:39:37.831Z" agent="Mozilla/5.0 (Windows NT 10.0; Win64; x64) AppleWebKit/537.36 (KHTML, like Gecko) draw.io/23.0.2 Chrome/120.0.6099.109 Electron/28.1.0 Safari/537.36" etag="eESzSsfJzgdKYf57J6gK" version="23.0.2" type="device" pages="3">
  <diagram name="StudentCourse" id="eXDZq0nMSX7AYcZeoudn">
    <mxGraphModel dx="574" dy="338" grid="1" gridSize="10" guides="1" tooltips="1" connect="1" arrows="1" fold="1" page="1" pageScale="1" pageWidth="1169" pageHeight="827" math="0" shadow="0">
      <root>
        <mxCell id="8Xbo-KBunyf081U47HyO-0" />
        <mxCell id="8Xbo-KBunyf081U47HyO-1" parent="8Xbo-KBunyf081U47HyO-0" />
        <mxCell id="8Xbo-KBunyf081U47HyO-2" style="rounded=0;orthogonalLoop=1;jettySize=auto;html=1;exitX=1;exitY=0.5;exitDx=0;exitDy=0;entryX=0;entryY=0.5;entryDx=0;entryDy=0;endArrow=none;endFill=0;" parent="8Xbo-KBunyf081U47HyO-1" source="8Xbo-KBunyf081U47HyO-3" target="8Xbo-KBunyf081U47HyO-6" edge="1">
          <mxGeometry relative="1" as="geometry" />
        </mxCell>
        <mxCell id="8Xbo-KBunyf081U47HyO-3" value="Student" style="rounded=0;whiteSpace=wrap;html=1;" parent="8Xbo-KBunyf081U47HyO-1" vertex="1">
          <mxGeometry x="340" y="250" width="80" height="60" as="geometry" />
        </mxCell>
        <mxCell id="8Xbo-KBunyf081U47HyO-4" style="edgeStyle=none;rounded=0;orthogonalLoop=1;jettySize=auto;html=1;exitX=0;exitY=0.25;exitDx=0;exitDy=0;endArrow=none;endFill=0;" parent="8Xbo-KBunyf081U47HyO-1" source="8Xbo-KBunyf081U47HyO-6" edge="1">
          <mxGeometry relative="1" as="geometry">
            <mxPoint x="520.0000000000001" y="280" as="targetPoint" />
          </mxGeometry>
        </mxCell>
        <mxCell id="8Xbo-KBunyf081U47HyO-5" style="edgeStyle=none;rounded=0;orthogonalLoop=1;jettySize=auto;html=1;exitX=0;exitY=0.75;exitDx=0;exitDy=0;endArrow=none;endFill=0;" parent="8Xbo-KBunyf081U47HyO-1" source="8Xbo-KBunyf081U47HyO-6" edge="1">
          <mxGeometry relative="1" as="geometry">
            <mxPoint x="520.0000000000001" y="280" as="targetPoint" />
          </mxGeometry>
        </mxCell>
        <mxCell id="8Xbo-KBunyf081U47HyO-6" value="Course" style="rounded=0;whiteSpace=wrap;html=1;" parent="8Xbo-KBunyf081U47HyO-1" vertex="1">
          <mxGeometry x="540" y="250" width="80" height="60" as="geometry" />
        </mxCell>
        <mxCell id="8Xbo-KBunyf081U47HyO-16" value="enrols on" style="text;html=1;strokeColor=none;fillColor=none;align=center;verticalAlign=middle;whiteSpace=wrap;rounded=0;" parent="8Xbo-KBunyf081U47HyO-1" vertex="1">
          <mxGeometry x="440" y="240" width="80" height="30" as="geometry" />
        </mxCell>
        <mxCell id="dyt4ZYZ2lUFOGDuKiYfl-0" style="edgeStyle=none;rounded=0;orthogonalLoop=1;jettySize=auto;html=1;exitX=0;exitY=0.25;exitDx=0;exitDy=0;endArrow=none;endFill=0;" edge="1" parent="8Xbo-KBunyf081U47HyO-1">
          <mxGeometry relative="1" as="geometry">
            <mxPoint x="420.0000000000001" y="295" as="targetPoint" />
            <mxPoint x="440" y="280" as="sourcePoint" />
          </mxGeometry>
        </mxCell>
        <mxCell id="dyt4ZYZ2lUFOGDuKiYfl-1" style="edgeStyle=none;rounded=0;orthogonalLoop=1;jettySize=auto;html=1;exitX=0;exitY=0.75;exitDx=0;exitDy=0;endArrow=none;endFill=0;" edge="1" parent="8Xbo-KBunyf081U47HyO-1">
          <mxGeometry relative="1" as="geometry">
            <mxPoint x="420.0000000000001" y="265" as="targetPoint" />
            <mxPoint x="440" y="280" as="sourcePoint" />
          </mxGeometry>
        </mxCell>
        <mxCell id="LJv-1hkZ6-9dLTnPANKL-0" value="Student" style="swimlane;fontStyle=0;childLayout=stackLayout;horizontal=1;startSize=26;horizontalStack=0;resizeParent=1;resizeParentMax=0;resizeLast=0;collapsible=1;marginBottom=0;align=center;fontSize=14;" vertex="1" parent="8Xbo-KBunyf081U47HyO-1">
          <mxGeometry x="260" y="328" width="80" height="86" as="geometry" />
        </mxCell>
        <mxCell id="LJv-1hkZ6-9dLTnPANKL-1" value="&lt;u&gt;studentID&lt;/u&gt;" style="text;strokeColor=none;fillColor=none;spacingLeft=4;spacingRight=4;overflow=hidden;rotatable=0;points=[[0,0.5],[1,0.5]];portConstraint=eastwest;fontSize=12;whiteSpace=wrap;html=1;align=left;verticalAlign=middle;" vertex="1" parent="LJv-1hkZ6-9dLTnPANKL-0">
          <mxGeometry y="26" width="80" height="20" as="geometry" />
        </mxCell>
        <mxCell id="LJv-1hkZ6-9dLTnPANKL-2" value="first_name" style="text;strokeColor=none;fillColor=none;spacingLeft=4;spacingRight=4;overflow=hidden;rotatable=0;points=[[0,0.5],[1,0.5]];portConstraint=eastwest;fontSize=12;whiteSpace=wrap;html=1;align=left;verticalAlign=middle;" vertex="1" parent="LJv-1hkZ6-9dLTnPANKL-0">
          <mxGeometry y="46" width="80" height="20" as="geometry" />
        </mxCell>
        <mxCell id="LJv-1hkZ6-9dLTnPANKL-3" value="last_name" style="text;strokeColor=none;fillColor=none;spacingLeft=4;spacingRight=4;overflow=hidden;rotatable=0;points=[[0,0.5],[1,0.5]];portConstraint=eastwest;fontSize=12;whiteSpace=wrap;html=1;align=left;verticalAlign=middle;" vertex="1" parent="LJv-1hkZ6-9dLTnPANKL-0">
          <mxGeometry y="66" width="80" height="20" as="geometry" />
        </mxCell>
        <mxCell id="LJv-1hkZ6-9dLTnPANKL-4" value="Course" style="swimlane;fontStyle=0;childLayout=stackLayout;horizontal=1;startSize=26;horizontalStack=0;resizeParent=1;resizeParentMax=0;resizeLast=0;collapsible=1;marginBottom=0;align=center;fontSize=14;" vertex="1" parent="8Xbo-KBunyf081U47HyO-1">
          <mxGeometry x="620" y="328" width="80" height="86" as="geometry" />
        </mxCell>
        <mxCell id="LJv-1hkZ6-9dLTnPANKL-5" value="&lt;u&gt;courseCode&lt;/u&gt;" style="text;strokeColor=none;fillColor=none;spacingLeft=4;spacingRight=4;overflow=hidden;rotatable=0;points=[[0,0.5],[1,0.5]];portConstraint=eastwest;fontSize=12;whiteSpace=wrap;html=1;align=left;verticalAlign=middle;" vertex="1" parent="LJv-1hkZ6-9dLTnPANKL-4">
          <mxGeometry y="26" width="80" height="20" as="geometry" />
        </mxCell>
        <mxCell id="LJv-1hkZ6-9dLTnPANKL-6" value="name" style="text;strokeColor=none;fillColor=none;spacingLeft=4;spacingRight=4;overflow=hidden;rotatable=0;points=[[0,0.5],[1,0.5]];portConstraint=eastwest;fontSize=12;whiteSpace=wrap;html=1;align=left;verticalAlign=middle;" vertex="1" parent="LJv-1hkZ6-9dLTnPANKL-4">
          <mxGeometry y="46" width="80" height="20" as="geometry" />
        </mxCell>
        <mxCell id="LJv-1hkZ6-9dLTnPANKL-7" value="credits" style="text;strokeColor=none;fillColor=none;spacingLeft=4;spacingRight=4;overflow=hidden;rotatable=0;points=[[0,0.5],[1,0.5]];portConstraint=eastwest;fontSize=12;whiteSpace=wrap;html=1;align=left;verticalAlign=middle;" vertex="1" parent="LJv-1hkZ6-9dLTnPANKL-4">
          <mxGeometry y="66" width="80" height="20" as="geometry" />
        </mxCell>
        <mxCell id="LJv-1hkZ6-9dLTnPANKL-8" value="" style="swimlane;fontStyle=0;childLayout=stackLayout;horizontal=1;startSize=26;horizontalStack=0;resizeParent=1;resizeParentMax=0;resizeLast=0;collapsible=1;marginBottom=0;align=center;fontSize=14;" vertex="1" parent="8Xbo-KBunyf081U47HyO-1">
          <mxGeometry x="420" y="328" width="120" height="106" as="geometry" />
        </mxCell>
        <mxCell id="LJv-1hkZ6-9dLTnPANKL-13" style="text;strokeColor=none;fillColor=none;spacingLeft=4;spacingRight=4;overflow=hidden;rotatable=0;points=[[0,0.5],[1,0.5]];portConstraint=eastwest;fontSize=12;whiteSpace=wrap;html=1;align=left;verticalAlign=middle;" vertex="1" parent="LJv-1hkZ6-9dLTnPANKL-8">
          <mxGeometry y="26" width="120" height="20" as="geometry" />
        </mxCell>
        <mxCell id="LJv-1hkZ6-9dLTnPANKL-14" style="text;strokeColor=none;fillColor=none;spacingLeft=4;spacingRight=4;overflow=hidden;rotatable=0;points=[[0,0.5],[1,0.5]];portConstraint=eastwest;fontSize=12;whiteSpace=wrap;html=1;align=left;verticalAlign=middle;" vertex="1" parent="LJv-1hkZ6-9dLTnPANKL-8">
          <mxGeometry y="46" width="120" height="20" as="geometry" />
        </mxCell>
        <mxCell id="LJv-1hkZ6-9dLTnPANKL-12" style="text;strokeColor=none;fillColor=none;spacingLeft=4;spacingRight=4;overflow=hidden;rotatable=0;points=[[0,0.5],[1,0.5]];portConstraint=eastwest;fontSize=12;whiteSpace=wrap;html=1;align=left;verticalAlign=middle;" vertex="1" parent="LJv-1hkZ6-9dLTnPANKL-8">
          <mxGeometry y="66" width="120" height="20" as="geometry" />
        </mxCell>
        <mxCell id="LJv-1hkZ6-9dLTnPANKL-21" style="text;strokeColor=none;fillColor=none;spacingLeft=4;spacingRight=4;overflow=hidden;rotatable=0;points=[[0,0.5],[1,0.5]];portConstraint=eastwest;fontSize=12;whiteSpace=wrap;html=1;align=left;verticalAlign=middle;" vertex="1" parent="LJv-1hkZ6-9dLTnPANKL-8">
          <mxGeometry y="86" width="120" height="20" as="geometry" />
        </mxCell>
        <mxCell id="LJv-1hkZ6-9dLTnPANKL-15" style="rounded=0;orthogonalLoop=1;jettySize=auto;html=1;exitX=1.006;exitY=0.565;exitDx=0;exitDy=0;endArrow=none;endFill=0;exitPerimeter=0;" edge="1" parent="8Xbo-KBunyf081U47HyO-1" source="LJv-1hkZ6-9dLTnPANKL-2">
          <mxGeometry relative="1" as="geometry">
            <mxPoint x="320" y="385" as="sourcePoint" />
            <mxPoint x="420" y="385" as="targetPoint" />
          </mxGeometry>
        </mxCell>
        <mxCell id="LJv-1hkZ6-9dLTnPANKL-16" style="edgeStyle=none;rounded=0;orthogonalLoop=1;jettySize=auto;html=1;exitX=0;exitY=0.25;exitDx=0;exitDy=0;endArrow=none;endFill=0;" edge="1" parent="8Xbo-KBunyf081U47HyO-1">
          <mxGeometry relative="1" as="geometry">
            <mxPoint x="400.0000000000001" y="385" as="targetPoint" />
            <mxPoint x="420" y="370" as="sourcePoint" />
          </mxGeometry>
        </mxCell>
        <mxCell id="LJv-1hkZ6-9dLTnPANKL-17" style="edgeStyle=none;rounded=0;orthogonalLoop=1;jettySize=auto;html=1;exitX=0;exitY=0.75;exitDx=0;exitDy=0;endArrow=none;endFill=0;" edge="1" parent="8Xbo-KBunyf081U47HyO-1">
          <mxGeometry relative="1" as="geometry">
            <mxPoint x="400.0000000000001" y="385" as="targetPoint" />
            <mxPoint x="420" y="400" as="sourcePoint" />
          </mxGeometry>
        </mxCell>
        <mxCell id="LJv-1hkZ6-9dLTnPANKL-18" style="rounded=0;orthogonalLoop=1;jettySize=auto;html=1;entryX=0;entryY=0.5;entryDx=0;entryDy=0;endArrow=none;endFill=0;" edge="1" parent="8Xbo-KBunyf081U47HyO-1">
          <mxGeometry relative="1" as="geometry">
            <mxPoint x="540" y="385" as="sourcePoint" />
            <mxPoint x="620" y="385" as="targetPoint" />
          </mxGeometry>
        </mxCell>
        <mxCell id="LJv-1hkZ6-9dLTnPANKL-19" style="edgeStyle=none;rounded=0;orthogonalLoop=1;jettySize=auto;html=1;exitX=0;exitY=0.25;exitDx=0;exitDy=0;endArrow=none;endFill=0;" edge="1" parent="8Xbo-KBunyf081U47HyO-1">
          <mxGeometry relative="1" as="geometry">
            <mxPoint x="540.0000000000001" y="400" as="targetPoint" />
            <mxPoint x="560" y="385" as="sourcePoint" />
          </mxGeometry>
        </mxCell>
        <mxCell id="LJv-1hkZ6-9dLTnPANKL-20" style="edgeStyle=none;rounded=0;orthogonalLoop=1;jettySize=auto;html=1;exitX=0;exitY=0.75;exitDx=0;exitDy=0;endArrow=none;endFill=0;" edge="1" parent="8Xbo-KBunyf081U47HyO-1">
          <mxGeometry relative="1" as="geometry">
            <mxPoint x="540.0000000000001" y="370" as="targetPoint" />
            <mxPoint x="560" y="385" as="sourcePoint" />
          </mxGeometry>
        </mxCell>
      </root>
    </mxGraphModel>
  </diagram>
  <diagram name="BookAuthor" id="rt4YGXLjJ5akfmf9FHMO">
    <mxGraphModel dx="574" dy="338" grid="1" gridSize="10" guides="1" tooltips="1" connect="1" arrows="1" fold="1" page="1" pageScale="1" pageWidth="1169" pageHeight="827" math="0" shadow="0">
      <root>
        <mxCell id="UTXXCjIn2-acjpcnQmLA-0" />
        <mxCell id="UTXXCjIn2-acjpcnQmLA-1" parent="UTXXCjIn2-acjpcnQmLA-0" />
        <mxCell id="UTXXCjIn2-acjpcnQmLA-2" style="rounded=0;orthogonalLoop=1;jettySize=auto;html=1;exitX=1;exitY=0.5;exitDx=0;exitDy=0;entryX=0;entryY=0.5;entryDx=0;entryDy=0;endArrow=none;endFill=0;" edge="1" parent="UTXXCjIn2-acjpcnQmLA-1" source="UTXXCjIn2-acjpcnQmLA-3" target="UTXXCjIn2-acjpcnQmLA-6">
          <mxGeometry relative="1" as="geometry" />
        </mxCell>
        <mxCell id="UTXXCjIn2-acjpcnQmLA-3" value="Book" style="rounded=0;whiteSpace=wrap;html=1;" vertex="1" parent="UTXXCjIn2-acjpcnQmLA-1">
          <mxGeometry x="340" y="250" width="80" height="60" as="geometry" />
        </mxCell>
        <mxCell id="UTXXCjIn2-acjpcnQmLA-4" style="edgeStyle=none;rounded=0;orthogonalLoop=1;jettySize=auto;html=1;exitX=0;exitY=0.25;exitDx=0;exitDy=0;endArrow=none;endFill=0;" edge="1" parent="UTXXCjIn2-acjpcnQmLA-1" source="UTXXCjIn2-acjpcnQmLA-6">
          <mxGeometry relative="1" as="geometry">
            <mxPoint x="520.0000000000001" y="280" as="targetPoint" />
          </mxGeometry>
        </mxCell>
        <mxCell id="UTXXCjIn2-acjpcnQmLA-5" style="edgeStyle=none;rounded=0;orthogonalLoop=1;jettySize=auto;html=1;exitX=0;exitY=0.75;exitDx=0;exitDy=0;endArrow=none;endFill=0;" edge="1" parent="UTXXCjIn2-acjpcnQmLA-1" source="UTXXCjIn2-acjpcnQmLA-6">
          <mxGeometry relative="1" as="geometry">
            <mxPoint x="520.0000000000001" y="280" as="targetPoint" />
          </mxGeometry>
        </mxCell>
        <mxCell id="UTXXCjIn2-acjpcnQmLA-6" value="Author" style="rounded=0;whiteSpace=wrap;html=1;" vertex="1" parent="UTXXCjIn2-acjpcnQmLA-1">
          <mxGeometry x="540" y="250" width="80" height="60" as="geometry" />
        </mxCell>
        <mxCell id="UTXXCjIn2-acjpcnQmLA-7" value="written by" style="text;html=1;strokeColor=none;fillColor=none;align=center;verticalAlign=middle;whiteSpace=wrap;rounded=0;" vertex="1" parent="UTXXCjIn2-acjpcnQmLA-1">
          <mxGeometry x="440" y="240" width="80" height="30" as="geometry" />
        </mxCell>
        <mxCell id="UTXXCjIn2-acjpcnQmLA-8" style="edgeStyle=none;rounded=0;orthogonalLoop=1;jettySize=auto;html=1;exitX=0;exitY=0.25;exitDx=0;exitDy=0;endArrow=none;endFill=0;" edge="1" parent="UTXXCjIn2-acjpcnQmLA-1">
          <mxGeometry relative="1" as="geometry">
            <mxPoint x="420.0000000000001" y="295" as="targetPoint" />
            <mxPoint x="440" y="280" as="sourcePoint" />
          </mxGeometry>
        </mxCell>
        <mxCell id="UTXXCjIn2-acjpcnQmLA-9" style="edgeStyle=none;rounded=0;orthogonalLoop=1;jettySize=auto;html=1;exitX=0;exitY=0.75;exitDx=0;exitDy=0;endArrow=none;endFill=0;" edge="1" parent="UTXXCjIn2-acjpcnQmLA-1">
          <mxGeometry relative="1" as="geometry">
            <mxPoint x="420.0000000000001" y="265" as="targetPoint" />
            <mxPoint x="440" y="280" as="sourcePoint" />
          </mxGeometry>
        </mxCell>
        <mxCell id="UTXXCjIn2-acjpcnQmLA-10" value="Book" style="swimlane;fontStyle=0;childLayout=stackLayout;horizontal=1;startSize=26;horizontalStack=0;resizeParent=1;resizeParentMax=0;resizeLast=0;collapsible=1;marginBottom=0;align=center;fontSize=14;" vertex="1" parent="UTXXCjIn2-acjpcnQmLA-1">
          <mxGeometry x="260" y="328" width="80" height="106" as="geometry" />
        </mxCell>
        <mxCell id="UTXXCjIn2-acjpcnQmLA-11" value="&lt;u&gt;ISBN&lt;/u&gt;" style="text;strokeColor=none;fillColor=none;spacingLeft=4;spacingRight=4;overflow=hidden;rotatable=0;points=[[0,0.5],[1,0.5]];portConstraint=eastwest;fontSize=12;whiteSpace=wrap;html=1;align=left;verticalAlign=middle;" vertex="1" parent="UTXXCjIn2-acjpcnQmLA-10">
          <mxGeometry y="26" width="80" height="20" as="geometry" />
        </mxCell>
        <mxCell id="UTXXCjIn2-acjpcnQmLA-12" value="title" style="text;strokeColor=none;fillColor=none;spacingLeft=4;spacingRight=4;overflow=hidden;rotatable=0;points=[[0,0.5],[1,0.5]];portConstraint=eastwest;fontSize=12;whiteSpace=wrap;html=1;align=left;verticalAlign=middle;" vertex="1" parent="UTXXCjIn2-acjpcnQmLA-10">
          <mxGeometry y="46" width="80" height="20" as="geometry" />
        </mxCell>
        <mxCell id="UTXXCjIn2-acjpcnQmLA-13" value="genre" style="text;strokeColor=none;fillColor=none;spacingLeft=4;spacingRight=4;overflow=hidden;rotatable=0;points=[[0,0.5],[1,0.5]];portConstraint=eastwest;fontSize=12;whiteSpace=wrap;html=1;align=left;verticalAlign=middle;" vertex="1" parent="UTXXCjIn2-acjpcnQmLA-10">
          <mxGeometry y="66" width="80" height="20" as="geometry" />
        </mxCell>
        <mxCell id="GQnL1kHio9u-d-2gP1dZ-1" value="description" style="text;strokeColor=none;fillColor=none;spacingLeft=4;spacingRight=4;overflow=hidden;rotatable=0;points=[[0,0.5],[1,0.5]];portConstraint=eastwest;fontSize=12;whiteSpace=wrap;html=1;align=left;verticalAlign=middle;" vertex="1" parent="UTXXCjIn2-acjpcnQmLA-10">
          <mxGeometry y="86" width="80" height="20" as="geometry" />
        </mxCell>
        <mxCell id="UTXXCjIn2-acjpcnQmLA-14" value="Author" style="swimlane;fontStyle=0;childLayout=stackLayout;horizontal=1;startSize=26;horizontalStack=0;resizeParent=1;resizeParentMax=0;resizeLast=0;collapsible=1;marginBottom=0;align=center;fontSize=14;" vertex="1" parent="UTXXCjIn2-acjpcnQmLA-1">
          <mxGeometry x="620" y="328" width="80" height="106" as="geometry" />
        </mxCell>
        <mxCell id="UTXXCjIn2-acjpcnQmLA-15" value="&lt;u&gt;authorID&lt;/u&gt;" style="text;strokeColor=none;fillColor=none;spacingLeft=4;spacingRight=4;overflow=hidden;rotatable=0;points=[[0,0.5],[1,0.5]];portConstraint=eastwest;fontSize=12;whiteSpace=wrap;html=1;align=left;verticalAlign=middle;" vertex="1" parent="UTXXCjIn2-acjpcnQmLA-14">
          <mxGeometry y="26" width="80" height="20" as="geometry" />
        </mxCell>
        <mxCell id="UTXXCjIn2-acjpcnQmLA-16" value="forename" style="text;strokeColor=none;fillColor=none;spacingLeft=4;spacingRight=4;overflow=hidden;rotatable=0;points=[[0,0.5],[1,0.5]];portConstraint=eastwest;fontSize=12;whiteSpace=wrap;html=1;align=left;verticalAlign=middle;" vertex="1" parent="UTXXCjIn2-acjpcnQmLA-14">
          <mxGeometry y="46" width="80" height="20" as="geometry" />
        </mxCell>
        <mxCell id="UTXXCjIn2-acjpcnQmLA-17" value="surname" style="text;strokeColor=none;fillColor=none;spacingLeft=4;spacingRight=4;overflow=hidden;rotatable=0;points=[[0,0.5],[1,0.5]];portConstraint=eastwest;fontSize=12;whiteSpace=wrap;html=1;align=left;verticalAlign=middle;" vertex="1" parent="UTXXCjIn2-acjpcnQmLA-14">
          <mxGeometry y="66" width="80" height="20" as="geometry" />
        </mxCell>
        <mxCell id="GQnL1kHio9u-d-2gP1dZ-0" value="known_as" style="text;strokeColor=none;fillColor=none;spacingLeft=4;spacingRight=4;overflow=hidden;rotatable=0;points=[[0,0.5],[1,0.5]];portConstraint=eastwest;fontSize=12;whiteSpace=wrap;html=1;align=left;verticalAlign=middle;" vertex="1" parent="UTXXCjIn2-acjpcnQmLA-14">
          <mxGeometry y="86" width="80" height="20" as="geometry" />
        </mxCell>
        <mxCell id="UTXXCjIn2-acjpcnQmLA-18" value="" style="swimlane;fontStyle=0;childLayout=stackLayout;horizontal=1;startSize=26;horizontalStack=0;resizeParent=1;resizeParentMax=0;resizeLast=0;collapsible=1;marginBottom=0;align=center;fontSize=14;" vertex="1" parent="UTXXCjIn2-acjpcnQmLA-1">
          <mxGeometry x="420" y="328" width="120" height="106" as="geometry" />
        </mxCell>
        <mxCell id="UTXXCjIn2-acjpcnQmLA-19" style="text;strokeColor=none;fillColor=none;spacingLeft=4;spacingRight=4;overflow=hidden;rotatable=0;points=[[0,0.5],[1,0.5]];portConstraint=eastwest;fontSize=12;whiteSpace=wrap;html=1;align=left;verticalAlign=middle;" vertex="1" parent="UTXXCjIn2-acjpcnQmLA-18">
          <mxGeometry y="26" width="120" height="20" as="geometry" />
        </mxCell>
        <mxCell id="UTXXCjIn2-acjpcnQmLA-20" style="text;strokeColor=none;fillColor=none;spacingLeft=4;spacingRight=4;overflow=hidden;rotatable=0;points=[[0,0.5],[1,0.5]];portConstraint=eastwest;fontSize=12;whiteSpace=wrap;html=1;align=left;verticalAlign=middle;" vertex="1" parent="UTXXCjIn2-acjpcnQmLA-18">
          <mxGeometry y="46" width="120" height="20" as="geometry" />
        </mxCell>
        <mxCell id="UTXXCjIn2-acjpcnQmLA-21" style="text;strokeColor=none;fillColor=none;spacingLeft=4;spacingRight=4;overflow=hidden;rotatable=0;points=[[0,0.5],[1,0.5]];portConstraint=eastwest;fontSize=12;whiteSpace=wrap;html=1;align=left;verticalAlign=middle;" vertex="1" parent="UTXXCjIn2-acjpcnQmLA-18">
          <mxGeometry y="66" width="120" height="20" as="geometry" />
        </mxCell>
        <mxCell id="UTXXCjIn2-acjpcnQmLA-22" style="text;strokeColor=none;fillColor=none;spacingLeft=4;spacingRight=4;overflow=hidden;rotatable=0;points=[[0,0.5],[1,0.5]];portConstraint=eastwest;fontSize=12;whiteSpace=wrap;html=1;align=left;verticalAlign=middle;" vertex="1" parent="UTXXCjIn2-acjpcnQmLA-18">
          <mxGeometry y="86" width="120" height="20" as="geometry" />
        </mxCell>
        <mxCell id="UTXXCjIn2-acjpcnQmLA-23" style="rounded=0;orthogonalLoop=1;jettySize=auto;html=1;exitX=1.006;exitY=0.565;exitDx=0;exitDy=0;endArrow=none;endFill=0;exitPerimeter=0;" edge="1" parent="UTXXCjIn2-acjpcnQmLA-1" source="UTXXCjIn2-acjpcnQmLA-12">
          <mxGeometry relative="1" as="geometry">
            <mxPoint x="320" y="385" as="sourcePoint" />
            <mxPoint x="420" y="385" as="targetPoint" />
          </mxGeometry>
        </mxCell>
        <mxCell id="UTXXCjIn2-acjpcnQmLA-24" style="edgeStyle=none;rounded=0;orthogonalLoop=1;jettySize=auto;html=1;exitX=0;exitY=0.25;exitDx=0;exitDy=0;endArrow=none;endFill=0;" edge="1" parent="UTXXCjIn2-acjpcnQmLA-1">
          <mxGeometry relative="1" as="geometry">
            <mxPoint x="400.0000000000001" y="385" as="targetPoint" />
            <mxPoint x="420" y="370" as="sourcePoint" />
          </mxGeometry>
        </mxCell>
        <mxCell id="UTXXCjIn2-acjpcnQmLA-25" style="edgeStyle=none;rounded=0;orthogonalLoop=1;jettySize=auto;html=1;exitX=0;exitY=0.75;exitDx=0;exitDy=0;endArrow=none;endFill=0;" edge="1" parent="UTXXCjIn2-acjpcnQmLA-1">
          <mxGeometry relative="1" as="geometry">
            <mxPoint x="400.0000000000001" y="385" as="targetPoint" />
            <mxPoint x="420" y="400" as="sourcePoint" />
          </mxGeometry>
        </mxCell>
        <mxCell id="UTXXCjIn2-acjpcnQmLA-26" style="rounded=0;orthogonalLoop=1;jettySize=auto;html=1;entryX=0;entryY=0.5;entryDx=0;entryDy=0;endArrow=none;endFill=0;" edge="1" parent="UTXXCjIn2-acjpcnQmLA-1">
          <mxGeometry relative="1" as="geometry">
            <mxPoint x="540" y="385" as="sourcePoint" />
            <mxPoint x="620" y="385" as="targetPoint" />
          </mxGeometry>
        </mxCell>
        <mxCell id="UTXXCjIn2-acjpcnQmLA-27" style="edgeStyle=none;rounded=0;orthogonalLoop=1;jettySize=auto;html=1;exitX=0;exitY=0.25;exitDx=0;exitDy=0;endArrow=none;endFill=0;" edge="1" parent="UTXXCjIn2-acjpcnQmLA-1">
          <mxGeometry relative="1" as="geometry">
            <mxPoint x="540.0000000000001" y="400" as="targetPoint" />
            <mxPoint x="560" y="385" as="sourcePoint" />
          </mxGeometry>
        </mxCell>
        <mxCell id="UTXXCjIn2-acjpcnQmLA-28" style="edgeStyle=none;rounded=0;orthogonalLoop=1;jettySize=auto;html=1;exitX=0;exitY=0.75;exitDx=0;exitDy=0;endArrow=none;endFill=0;" edge="1" parent="UTXXCjIn2-acjpcnQmLA-1">
          <mxGeometry relative="1" as="geometry">
            <mxPoint x="540.0000000000001" y="370" as="targetPoint" />
            <mxPoint x="560" y="385" as="sourcePoint" />
          </mxGeometry>
        </mxCell>
      </root>
    </mxGraphModel>
  </diagram>
  <diagram name="ArtistArtwork" id="tb71RqfHNwZuJjtFqXNK">
    <mxGraphModel dx="574" dy="338" grid="1" gridSize="10" guides="1" tooltips="1" connect="1" arrows="1" fold="1" page="1" pageScale="1" pageWidth="1169" pageHeight="827" math="0" shadow="0">
      <root>
        <mxCell id="5d52nSm6-lO-FbWmwKMX-0" />
        <mxCell id="5d52nSm6-lO-FbWmwKMX-1" parent="5d52nSm6-lO-FbWmwKMX-0" />
        <mxCell id="5d52nSm6-lO-FbWmwKMX-2" style="rounded=0;orthogonalLoop=1;jettySize=auto;html=1;exitX=1;exitY=0.5;exitDx=0;exitDy=0;entryX=0;entryY=0.5;entryDx=0;entryDy=0;endArrow=none;endFill=0;" edge="1" parent="5d52nSm6-lO-FbWmwKMX-1" source="5d52nSm6-lO-FbWmwKMX-3" target="5d52nSm6-lO-FbWmwKMX-6">
          <mxGeometry relative="1" as="geometry" />
        </mxCell>
        <mxCell id="5d52nSm6-lO-FbWmwKMX-3" value="Artist" style="rounded=0;whiteSpace=wrap;html=1;" vertex="1" parent="5d52nSm6-lO-FbWmwKMX-1">
          <mxGeometry x="340" y="250" width="80" height="60" as="geometry" />
        </mxCell>
        <mxCell id="5d52nSm6-lO-FbWmwKMX-4" style="edgeStyle=none;rounded=0;orthogonalLoop=1;jettySize=auto;html=1;exitX=0;exitY=0.25;exitDx=0;exitDy=0;endArrow=none;endFill=0;" edge="1" parent="5d52nSm6-lO-FbWmwKMX-1" source="5d52nSm6-lO-FbWmwKMX-6">
          <mxGeometry relative="1" as="geometry">
            <mxPoint x="520.0000000000001" y="280" as="targetPoint" />
          </mxGeometry>
        </mxCell>
        <mxCell id="5d52nSm6-lO-FbWmwKMX-5" style="edgeStyle=none;rounded=0;orthogonalLoop=1;jettySize=auto;html=1;exitX=0;exitY=0.75;exitDx=0;exitDy=0;endArrow=none;endFill=0;" edge="1" parent="5d52nSm6-lO-FbWmwKMX-1" source="5d52nSm6-lO-FbWmwKMX-6">
          <mxGeometry relative="1" as="geometry">
            <mxPoint x="520.0000000000001" y="280" as="targetPoint" />
          </mxGeometry>
        </mxCell>
        <mxCell id="5d52nSm6-lO-FbWmwKMX-6" value="Artwork" style="rounded=0;whiteSpace=wrap;html=1;" vertex="1" parent="5d52nSm6-lO-FbWmwKMX-1">
          <mxGeometry x="540" y="250" width="80" height="60" as="geometry" />
        </mxCell>
        <mxCell id="5d52nSm6-lO-FbWmwKMX-7" value="creates" style="text;html=1;strokeColor=none;fillColor=none;align=center;verticalAlign=middle;whiteSpace=wrap;rounded=0;" vertex="1" parent="5d52nSm6-lO-FbWmwKMX-1">
          <mxGeometry x="440" y="240" width="80" height="30" as="geometry" />
        </mxCell>
        <mxCell id="5d52nSm6-lO-FbWmwKMX-8" style="edgeStyle=none;rounded=0;orthogonalLoop=1;jettySize=auto;html=1;exitX=0;exitY=0.25;exitDx=0;exitDy=0;endArrow=none;endFill=0;" edge="1" parent="5d52nSm6-lO-FbWmwKMX-1">
          <mxGeometry relative="1" as="geometry">
            <mxPoint x="420.0000000000001" y="295" as="targetPoint" />
            <mxPoint x="440" y="280" as="sourcePoint" />
          </mxGeometry>
        </mxCell>
        <mxCell id="5d52nSm6-lO-FbWmwKMX-9" style="edgeStyle=none;rounded=0;orthogonalLoop=1;jettySize=auto;html=1;exitX=0;exitY=0.75;exitDx=0;exitDy=0;endArrow=none;endFill=0;" edge="1" parent="5d52nSm6-lO-FbWmwKMX-1">
          <mxGeometry relative="1" as="geometry">
            <mxPoint x="420.0000000000001" y="265" as="targetPoint" />
            <mxPoint x="440" y="280" as="sourcePoint" />
          </mxGeometry>
        </mxCell>
        <mxCell id="5d52nSm6-lO-FbWmwKMX-10" value="Artist" style="swimlane;fontStyle=0;childLayout=stackLayout;horizontal=1;startSize=26;horizontalStack=0;resizeParent=1;resizeParentMax=0;resizeLast=0;collapsible=1;marginBottom=0;align=center;fontSize=14;" vertex="1" parent="5d52nSm6-lO-FbWmwKMX-1">
          <mxGeometry x="260" y="328" width="80" height="166" as="geometry" />
        </mxCell>
        <mxCell id="5d52nSm6-lO-FbWmwKMX-11" value="&lt;u&gt;artistID&lt;/u&gt;" style="text;strokeColor=none;fillColor=none;spacingLeft=4;spacingRight=4;overflow=hidden;rotatable=0;points=[[0,0.5],[1,0.5]];portConstraint=eastwest;fontSize=12;whiteSpace=wrap;html=1;align=left;verticalAlign=middle;" vertex="1" parent="5d52nSm6-lO-FbWmwKMX-10">
          <mxGeometry y="26" width="80" height="20" as="geometry" />
        </mxCell>
        <mxCell id="5d52nSm6-lO-FbWmwKMX-12" value="forename" style="text;strokeColor=none;fillColor=none;spacingLeft=4;spacingRight=4;overflow=hidden;rotatable=0;points=[[0,0.5],[1,0.5]];portConstraint=eastwest;fontSize=12;whiteSpace=wrap;html=1;align=left;verticalAlign=middle;" vertex="1" parent="5d52nSm6-lO-FbWmwKMX-10">
          <mxGeometry y="46" width="80" height="20" as="geometry" />
        </mxCell>
        <mxCell id="5d52nSm6-lO-FbWmwKMX-13" value="surname" style="text;strokeColor=none;fillColor=none;spacingLeft=4;spacingRight=4;overflow=hidden;rotatable=0;points=[[0,0.5],[1,0.5]];portConstraint=eastwest;fontSize=12;whiteSpace=wrap;html=1;align=left;verticalAlign=middle;" vertex="1" parent="5d52nSm6-lO-FbWmwKMX-10">
          <mxGeometry y="66" width="80" height="20" as="geometry" />
        </mxCell>
        <mxCell id="5d52nSm6-lO-FbWmwKMX-14" value="dob" style="text;strokeColor=none;fillColor=none;spacingLeft=4;spacingRight=4;overflow=hidden;rotatable=0;points=[[0,0.5],[1,0.5]];portConstraint=eastwest;fontSize=12;whiteSpace=wrap;html=1;align=left;verticalAlign=middle;" vertex="1" parent="5d52nSm6-lO-FbWmwKMX-10">
          <mxGeometry y="86" width="80" height="20" as="geometry" />
        </mxCell>
        <mxCell id="3O8WP1Vw1RuwNpBKoI2w-0" value="main_style" style="text;strokeColor=none;fillColor=none;spacingLeft=4;spacingRight=4;overflow=hidden;rotatable=0;points=[[0,0.5],[1,0.5]];portConstraint=eastwest;fontSize=12;whiteSpace=wrap;html=1;align=left;verticalAlign=middle;" vertex="1" parent="5d52nSm6-lO-FbWmwKMX-10">
          <mxGeometry y="106" width="80" height="20" as="geometry" />
        </mxCell>
        <mxCell id="3O8WP1Vw1RuwNpBKoI2w-5" value="other_style" style="text;strokeColor=none;fillColor=none;spacingLeft=4;spacingRight=4;overflow=hidden;rotatable=0;points=[[0,0.5],[1,0.5]];portConstraint=eastwest;fontSize=12;whiteSpace=wrap;html=1;align=left;verticalAlign=middle;" vertex="1" parent="5d52nSm6-lO-FbWmwKMX-10">
          <mxGeometry y="126" width="80" height="20" as="geometry" />
        </mxCell>
        <mxCell id="3O8WP1Vw1RuwNpBKoI2w-1" value="deceased" style="text;strokeColor=none;fillColor=none;spacingLeft=4;spacingRight=4;overflow=hidden;rotatable=0;points=[[0,0.5],[1,0.5]];portConstraint=eastwest;fontSize=12;whiteSpace=wrap;html=1;align=left;verticalAlign=middle;" vertex="1" parent="5d52nSm6-lO-FbWmwKMX-10">
          <mxGeometry y="146" width="80" height="20" as="geometry" />
        </mxCell>
        <mxCell id="5d52nSm6-lO-FbWmwKMX-15" value="Artwork" style="swimlane;fontStyle=0;childLayout=stackLayout;horizontal=1;startSize=26;horizontalStack=0;resizeParent=1;resizeParentMax=0;resizeLast=0;collapsible=1;marginBottom=0;align=center;fontSize=14;" vertex="1" parent="5d52nSm6-lO-FbWmwKMX-1">
          <mxGeometry x="620" y="328" width="80" height="166" as="geometry" />
        </mxCell>
        <mxCell id="5d52nSm6-lO-FbWmwKMX-16" value="&lt;u&gt;artworkID&lt;/u&gt;" style="text;strokeColor=none;fillColor=none;spacingLeft=4;spacingRight=4;overflow=hidden;rotatable=0;points=[[0,0.5],[1,0.5]];portConstraint=eastwest;fontSize=12;whiteSpace=wrap;html=1;align=left;verticalAlign=middle;" vertex="1" parent="5d52nSm6-lO-FbWmwKMX-15">
          <mxGeometry y="26" width="80" height="20" as="geometry" />
        </mxCell>
        <mxCell id="5d52nSm6-lO-FbWmwKMX-17" value="name" style="text;strokeColor=none;fillColor=none;spacingLeft=4;spacingRight=4;overflow=hidden;rotatable=0;points=[[0,0.5],[1,0.5]];portConstraint=eastwest;fontSize=12;whiteSpace=wrap;html=1;align=left;verticalAlign=middle;" vertex="1" parent="5d52nSm6-lO-FbWmwKMX-15">
          <mxGeometry y="46" width="80" height="20" as="geometry" />
        </mxCell>
        <mxCell id="5d52nSm6-lO-FbWmwKMX-18" value="medium" style="text;strokeColor=none;fillColor=none;spacingLeft=4;spacingRight=4;overflow=hidden;rotatable=0;points=[[0,0.5],[1,0.5]];portConstraint=eastwest;fontSize=12;whiteSpace=wrap;html=1;align=left;verticalAlign=middle;" vertex="1" parent="5d52nSm6-lO-FbWmwKMX-15">
          <mxGeometry y="66" width="80" height="20" as="geometry" />
        </mxCell>
        <mxCell id="5d52nSm6-lO-FbWmwKMX-19" value="width" style="text;strokeColor=none;fillColor=none;spacingLeft=4;spacingRight=4;overflow=hidden;rotatable=0;points=[[0,0.5],[1,0.5]];portConstraint=eastwest;fontSize=12;whiteSpace=wrap;html=1;align=left;verticalAlign=middle;" vertex="1" parent="5d52nSm6-lO-FbWmwKMX-15">
          <mxGeometry y="86" width="80" height="20" as="geometry" />
        </mxCell>
        <mxCell id="3O8WP1Vw1RuwNpBKoI2w-3" value="height" style="text;strokeColor=none;fillColor=none;spacingLeft=4;spacingRight=4;overflow=hidden;rotatable=0;points=[[0,0.5],[1,0.5]];portConstraint=eastwest;fontSize=12;whiteSpace=wrap;html=1;align=left;verticalAlign=middle;" vertex="1" parent="5d52nSm6-lO-FbWmwKMX-15">
          <mxGeometry y="106" width="80" height="20" as="geometry" />
        </mxCell>
        <mxCell id="3O8WP1Vw1RuwNpBKoI2w-2" value="depth" style="text;strokeColor=none;fillColor=none;spacingLeft=4;spacingRight=4;overflow=hidden;rotatable=0;points=[[0,0.5],[1,0.5]];portConstraint=eastwest;fontSize=12;whiteSpace=wrap;html=1;align=left;verticalAlign=middle;" vertex="1" parent="5d52nSm6-lO-FbWmwKMX-15">
          <mxGeometry y="126" width="80" height="20" as="geometry" />
        </mxCell>
        <mxCell id="3O8WP1Vw1RuwNpBKoI2w-4" value="weight" style="text;strokeColor=none;fillColor=none;spacingLeft=4;spacingRight=4;overflow=hidden;rotatable=0;points=[[0,0.5],[1,0.5]];portConstraint=eastwest;fontSize=12;whiteSpace=wrap;html=1;align=left;verticalAlign=middle;" vertex="1" parent="5d52nSm6-lO-FbWmwKMX-15">
          <mxGeometry y="146" width="80" height="20" as="geometry" />
        </mxCell>
        <mxCell id="5d52nSm6-lO-FbWmwKMX-20" value="" style="swimlane;fontStyle=0;childLayout=stackLayout;horizontal=1;startSize=26;horizontalStack=0;resizeParent=1;resizeParentMax=0;resizeLast=0;collapsible=1;marginBottom=0;align=center;fontSize=14;" vertex="1" parent="5d52nSm6-lO-FbWmwKMX-1">
          <mxGeometry x="420" y="328" width="120" height="166" as="geometry" />
        </mxCell>
        <mxCell id="5d52nSm6-lO-FbWmwKMX-21" style="text;strokeColor=none;fillColor=none;spacingLeft=4;spacingRight=4;overflow=hidden;rotatable=0;points=[[0,0.5],[1,0.5]];portConstraint=eastwest;fontSize=12;whiteSpace=wrap;html=1;align=left;verticalAlign=middle;" vertex="1" parent="5d52nSm6-lO-FbWmwKMX-20">
          <mxGeometry y="26" width="120" height="20" as="geometry" />
        </mxCell>
        <mxCell id="5d52nSm6-lO-FbWmwKMX-22" style="text;strokeColor=none;fillColor=none;spacingLeft=4;spacingRight=4;overflow=hidden;rotatable=0;points=[[0,0.5],[1,0.5]];portConstraint=eastwest;fontSize=12;whiteSpace=wrap;html=1;align=left;verticalAlign=middle;" vertex="1" parent="5d52nSm6-lO-FbWmwKMX-20">
          <mxGeometry y="46" width="120" height="20" as="geometry" />
        </mxCell>
        <mxCell id="5d52nSm6-lO-FbWmwKMX-23" style="text;strokeColor=none;fillColor=none;spacingLeft=4;spacingRight=4;overflow=hidden;rotatable=0;points=[[0,0.5],[1,0.5]];portConstraint=eastwest;fontSize=12;whiteSpace=wrap;html=1;align=left;verticalAlign=middle;" vertex="1" parent="5d52nSm6-lO-FbWmwKMX-20">
          <mxGeometry y="66" width="120" height="20" as="geometry" />
        </mxCell>
        <mxCell id="5d52nSm6-lO-FbWmwKMX-24" style="text;strokeColor=none;fillColor=none;spacingLeft=4;spacingRight=4;overflow=hidden;rotatable=0;points=[[0,0.5],[1,0.5]];portConstraint=eastwest;fontSize=12;whiteSpace=wrap;html=1;align=left;verticalAlign=middle;" vertex="1" parent="5d52nSm6-lO-FbWmwKMX-20">
          <mxGeometry y="86" width="120" height="20" as="geometry" />
        </mxCell>
        <mxCell id="3O8WP1Vw1RuwNpBKoI2w-7" style="text;strokeColor=none;fillColor=none;spacingLeft=4;spacingRight=4;overflow=hidden;rotatable=0;points=[[0,0.5],[1,0.5]];portConstraint=eastwest;fontSize=12;whiteSpace=wrap;html=1;align=left;verticalAlign=middle;" vertex="1" parent="5d52nSm6-lO-FbWmwKMX-20">
          <mxGeometry y="106" width="120" height="20" as="geometry" />
        </mxCell>
        <mxCell id="3O8WP1Vw1RuwNpBKoI2w-6" style="text;strokeColor=none;fillColor=none;spacingLeft=4;spacingRight=4;overflow=hidden;rotatable=0;points=[[0,0.5],[1,0.5]];portConstraint=eastwest;fontSize=12;whiteSpace=wrap;html=1;align=left;verticalAlign=middle;" vertex="1" parent="5d52nSm6-lO-FbWmwKMX-20">
          <mxGeometry y="126" width="120" height="20" as="geometry" />
        </mxCell>
        <mxCell id="3O8WP1Vw1RuwNpBKoI2w-8" style="text;strokeColor=none;fillColor=none;spacingLeft=4;spacingRight=4;overflow=hidden;rotatable=0;points=[[0,0.5],[1,0.5]];portConstraint=eastwest;fontSize=12;whiteSpace=wrap;html=1;align=left;verticalAlign=middle;" vertex="1" parent="5d52nSm6-lO-FbWmwKMX-20">
          <mxGeometry y="146" width="120" height="20" as="geometry" />
        </mxCell>
        <mxCell id="5d52nSm6-lO-FbWmwKMX-25" style="rounded=0;orthogonalLoop=1;jettySize=auto;html=1;exitX=1.006;exitY=0.565;exitDx=0;exitDy=0;endArrow=none;endFill=0;exitPerimeter=0;" edge="1" parent="5d52nSm6-lO-FbWmwKMX-1" source="5d52nSm6-lO-FbWmwKMX-12">
          <mxGeometry relative="1" as="geometry">
            <mxPoint x="320" y="385" as="sourcePoint" />
            <mxPoint x="420" y="385" as="targetPoint" />
          </mxGeometry>
        </mxCell>
        <mxCell id="5d52nSm6-lO-FbWmwKMX-26" style="edgeStyle=none;rounded=0;orthogonalLoop=1;jettySize=auto;html=1;exitX=0;exitY=0.25;exitDx=0;exitDy=0;endArrow=none;endFill=0;" edge="1" parent="5d52nSm6-lO-FbWmwKMX-1">
          <mxGeometry relative="1" as="geometry">
            <mxPoint x="400.0000000000001" y="385" as="targetPoint" />
            <mxPoint x="420" y="370" as="sourcePoint" />
          </mxGeometry>
        </mxCell>
        <mxCell id="5d52nSm6-lO-FbWmwKMX-27" style="edgeStyle=none;rounded=0;orthogonalLoop=1;jettySize=auto;html=1;exitX=0;exitY=0.75;exitDx=0;exitDy=0;endArrow=none;endFill=0;" edge="1" parent="5d52nSm6-lO-FbWmwKMX-1">
          <mxGeometry relative="1" as="geometry">
            <mxPoint x="400.0000000000001" y="385" as="targetPoint" />
            <mxPoint x="420" y="400" as="sourcePoint" />
          </mxGeometry>
        </mxCell>
        <mxCell id="5d52nSm6-lO-FbWmwKMX-28" style="rounded=0;orthogonalLoop=1;jettySize=auto;html=1;entryX=0;entryY=0.5;entryDx=0;entryDy=0;endArrow=none;endFill=0;" edge="1" parent="5d52nSm6-lO-FbWmwKMX-1">
          <mxGeometry relative="1" as="geometry">
            <mxPoint x="540" y="385" as="sourcePoint" />
            <mxPoint x="620" y="385" as="targetPoint" />
          </mxGeometry>
        </mxCell>
        <mxCell id="5d52nSm6-lO-FbWmwKMX-29" style="edgeStyle=none;rounded=0;orthogonalLoop=1;jettySize=auto;html=1;exitX=0;exitY=0.25;exitDx=0;exitDy=0;endArrow=none;endFill=0;" edge="1" parent="5d52nSm6-lO-FbWmwKMX-1">
          <mxGeometry relative="1" as="geometry">
            <mxPoint x="540.0000000000001" y="400" as="targetPoint" />
            <mxPoint x="560" y="385" as="sourcePoint" />
          </mxGeometry>
        </mxCell>
        <mxCell id="5d52nSm6-lO-FbWmwKMX-30" style="edgeStyle=none;rounded=0;orthogonalLoop=1;jettySize=auto;html=1;exitX=0;exitY=0.75;exitDx=0;exitDy=0;endArrow=none;endFill=0;" edge="1" parent="5d52nSm6-lO-FbWmwKMX-1">
          <mxGeometry relative="1" as="geometry">
            <mxPoint x="540.0000000000001" y="370" as="targetPoint" />
            <mxPoint x="560" y="385" as="sourcePoint" />
          </mxGeometry>
        </mxCell>
      </root>
    </mxGraphModel>
  </diagram>
</mxfile>
